<mxfile host="app.diagrams.net" modified="2021-11-25T14:02:46.542Z" agent="5.0 (Macintosh; Intel Mac OS X 10_15_7) AppleWebKit/537.36 (KHTML, like Gecko) Chrome/96.0.4664.55 Safari/537.36" etag="DqxaCQe2a4tvvMw6Nudr" version="15.8.6" type="github">
  <diagram id="4Y_KsI118iPX1C1HI_qV" name="Page-1">
    <mxGraphModel dx="1351" dy="766" grid="1" gridSize="10" guides="1" tooltips="1" connect="1" arrows="1" fold="1" page="1" pageScale="1" pageWidth="850" pageHeight="1100" math="0" shadow="0">
      <root>
        <mxCell id="0" />
        <mxCell id="1" parent="0" />
        <mxCell id="peq8d5gX8DXLt__JmTx_-1" value="" style="rounded=0;whiteSpace=wrap;html=1;fillColor=none;" parent="1" vertex="1">
          <mxGeometry x="910" y="390" width="130" height="267" as="geometry" />
        </mxCell>
        <mxCell id="peq8d5gX8DXLt__JmTx_-2" value="" style="rounded=0;whiteSpace=wrap;html=1;fillColor=#f5f5f5;strokeColor=#666666;fontColor=#333333;" parent="1" vertex="1">
          <mxGeometry x="188" y="131" width="182" height="259" as="geometry" />
        </mxCell>
        <mxCell id="peq8d5gX8DXLt__JmTx_-3" value="&lt;font style=&quot;font-size: 18px&quot;&gt;Mounting&lt;/font&gt;" style="text;html=1;strokeColor=none;fillColor=none;align=center;verticalAlign=middle;whiteSpace=wrap;rounded=0;" parent="1" vertex="1">
          <mxGeometry x="260" y="141" width="38" height="20" as="geometry" />
        </mxCell>
        <mxCell id="peq8d5gX8DXLt__JmTx_-4" value="" style="edgeStyle=orthogonalEdgeStyle;rounded=0;orthogonalLoop=1;jettySize=auto;html=1;" parent="1" edge="1">
          <mxGeometry relative="1" as="geometry">
            <Array as="points">
              <mxPoint x="240" y="301" />
              <mxPoint x="240" y="301" />
            </Array>
            <mxPoint x="240" y="208" as="sourcePoint" />
            <mxPoint x="240" y="321" as="targetPoint" />
          </mxGeometry>
        </mxCell>
        <mxCell id="peq8d5gX8DXLt__JmTx_-5" value="&lt;h3 id=&quot;static-getderivedstatefromprops&quot;&gt;&lt;code style=&quot;font-weight: normal&quot;&gt;&lt;font style=&quot;font-size: 14px&quot;&gt;function () {}&lt;/font&gt;&lt;/code&gt;&lt;/h3&gt;" style="rounded=1;whiteSpace=wrap;html=1;fillColor=#dae8fc;strokeColor=#6c8ebf;gradientColor=#E8F1FF;" parent="1" vertex="1">
          <mxGeometry x="210" y="178" width="140" height="30" as="geometry" />
        </mxCell>
        <mxCell id="peq8d5gX8DXLt__JmTx_-6" value="Unmounting" style="group;fillColor=#f5f5f5;strokeColor=#666666;fontColor=#000000;fontSize=18;gradientColor=none;gradientDirection=south;comic=0;glass=0;" parent="1" vertex="1" connectable="0">
          <mxGeometry x="910" y="131" width="130" height="259" as="geometry" />
        </mxCell>
        <mxCell id="peq8d5gX8DXLt__JmTx_-7" value="&lt;font style=&quot;font-size: 14px&quot;&gt;&lt;b&gt;&quot;Render phase&quot;&lt;br&gt;&lt;/b&gt;&lt;/font&gt;&lt;br&gt;Pure and has no side&lt;br&gt;effects. May be paused,&lt;br&gt;aborted or restarted by&lt;br&gt;React&lt;br&gt;" style="text;html=1;resizable=0;points=[];autosize=1;align=left;verticalAlign=top;spacingTop=-4;" parent="1" vertex="1">
          <mxGeometry x="40" y="191" width="140" height="90" as="geometry" />
        </mxCell>
        <mxCell id="peq8d5gX8DXLt__JmTx_-8" value="&lt;font style=&quot;font-size: 14px&quot;&gt;&lt;b&gt;&quot;Commit phase&quot;&lt;br&gt;&lt;/b&gt;&lt;br&gt;&lt;/font&gt;Can work with DOM,&lt;br&gt;run side effects,&lt;br&gt;schedule updates.&lt;br&gt;" style="text;html=1;resizable=0;points=[];autosize=1;align=left;verticalAlign=top;spacingTop=-4;" parent="1" vertex="1">
          <mxGeometry x="40" y="471" width="130" height="70" as="geometry" />
        </mxCell>
        <mxCell id="peq8d5gX8DXLt__JmTx_-9" value="&lt;font style=&quot;font-size: 26px&quot;&gt;React Hooks Lifecycle&lt;/font&gt;" style="text;html=1;resizable=0;points=[];autosize=1;align=left;verticalAlign=top;spacingTop=-4;fontFamily=Verdana;fontStyle=1" parent="1" vertex="1">
          <mxGeometry x="268" y="52" width="300" height="20" as="geometry" />
        </mxCell>
        <mxCell id="peq8d5gX8DXLt__JmTx_-10" value="" style="rounded=0;whiteSpace=wrap;html=1;fillColor=none;" parent="1" vertex="1">
          <mxGeometry x="188" y="390" width="182" height="267" as="geometry" />
        </mxCell>
        <mxCell id="peq8d5gX8DXLt__JmTx_-11" value="" style="edgeStyle=orthogonalEdgeStyle;rounded=0;orthogonalLoop=1;jettySize=auto;html=1;" parent="1" source="peq8d5gX8DXLt__JmTx_-17" edge="1">
          <mxGeometry relative="1" as="geometry">
            <Array as="points">
              <mxPoint x="278" y="401" />
              <mxPoint x="278" y="401" />
            </Array>
            <mxPoint x="278" y="461" as="targetPoint" />
          </mxGeometry>
        </mxCell>
        <mxCell id="peq8d5gX8DXLt__JmTx_-12" value="" style="rounded=0;whiteSpace=wrap;html=1;fillColor=#f5f5f5;strokeColor=#666666;fontColor=#333333;" parent="1" vertex="1">
          <mxGeometry x="418" y="131" width="442" height="259" as="geometry" />
        </mxCell>
        <mxCell id="peq8d5gX8DXLt__JmTx_-13" value="&lt;font style=&quot;font-size: 18px&quot;&gt;Updating&lt;/font&gt;" style="text;html=1;strokeColor=none;fillColor=none;align=center;verticalAlign=middle;whiteSpace=wrap;rounded=0;" parent="1" vertex="1">
          <mxGeometry x="600.0037624861264" y="141" width="75.91564927857935" height="20" as="geometry" />
        </mxCell>
        <UserObject label="" id="peq8d5gX8DXLt__JmTx_-15">
          <mxCell style="rounded=1;whiteSpace=wrap;html=1;fillColor=#dae8fc;strokeColor=#6c8ebf;gradientColor=#E8F1FF;" parent="1" vertex="1">
            <mxGeometry x="436" y="178" width="404" height="30" as="geometry" />
          </mxCell>
        </UserObject>
        <mxCell id="peq8d5gX8DXLt__JmTx_-16" value="" style="rounded=0;whiteSpace=wrap;html=1;fillColor=none;" parent="1" vertex="1">
          <mxGeometry x="418" y="390" width="442" height="267" as="geometry" />
        </mxCell>
        <mxCell id="peq8d5gX8DXLt__JmTx_-17" value="&lt;h3 id=&quot;static-getderivedstatefromprops&quot;&gt;&lt;code&gt;&lt;font style=&quot;font-weight: normal ; font-size: 14px&quot;&gt;return ()&lt;/font&gt;&lt;/code&gt;&lt;/h3&gt;" style="rounded=1;whiteSpace=wrap;html=1;fillColor=#E8F1FF;strokeColor=#6c8ebf;" parent="1" vertex="1">
          <mxGeometry x="210" y="321" width="140" height="30" as="geometry" />
        </mxCell>
        <mxCell id="peq8d5gX8DXLt__JmTx_-18" value="" style="rounded=1;whiteSpace=wrap;html=1;fillColor=#d5e8d4;strokeColor=#82b366;gradientColor=#C8E8C5;" parent="1" vertex="1">
          <mxGeometry x="210" y="553" width="810" height="50" as="geometry" />
        </mxCell>
        <mxCell id="peq8d5gX8DXLt__JmTx_-19" value="" style="shape=image;verticalLabelPosition=bottom;labelBackgroundColor=#ffffff;verticalAlign=top;aspect=fixed;imageAspect=0;image=https://upload.wikimedia.org/wikipedia/commons/a/a7/React-icon.svg;" parent="1" vertex="1">
          <mxGeometry x="179" y="37" width="95" height="67" as="geometry" />
        </mxCell>
        <UserObject label="&lt;h3 id=&quot;static-getderivedstatefromprops&quot;&gt;&lt;code&gt;&lt;font style=&quot;font-size: 14px&quot;&gt;&lt;a href=&quot;https://reactjs.org/docs/hooks-reference.html#usememo&quot;&gt;useMemo()&lt;/a&gt;&lt;/font&gt;&lt;/code&gt;&lt;/h3&gt;" tooltip="https://reactjs.org/docs/hooks-reference.html#usememo" id="peq8d5gX8DXLt__JmTx_-26">
          <mxCell style="rounded=1;whiteSpace=wrap;html=1;fillColor=#dae8fc;strokeColor=#6c8ebf;dashed=1;gradientColor=#E8F1FF;" parent="1" vertex="1">
            <mxGeometry x="260" y="236" width="90" height="30" as="geometry" />
          </mxCell>
        </UserObject>
        <mxCell id="peq8d5gX8DXLt__JmTx_-31" value="&lt;h3 id=&quot;static-getderivedstatefromprops&quot;&gt;&lt;code style=&quot;font-weight: normal&quot;&gt;&lt;i&gt;React updates DOM and refs&lt;/i&gt;&lt;/code&gt;&lt;/h3&gt;" style="rounded=1;whiteSpace=wrap;html=1;fillColor=#fff2cc;strokeColor=#d6b656;gradientColor=#FFF1B8;" parent="1" vertex="1">
          <mxGeometry x="208" y="461" width="812" height="50" as="geometry" />
        </mxCell>
        <mxCell id="yjP6mhXBnPZrxiyDEznI-19" value="" style="edgeStyle=orthogonalEdgeStyle;rounded=0;orthogonalLoop=1;jettySize=auto;html=1;dashed=1;fontColor=#007FFF;" edge="1" parent="1" source="peq8d5gX8DXLt__JmTx_-32">
          <mxGeometry relative="1" as="geometry">
            <mxPoint x="639" y="350" as="targetPoint" />
            <Array as="points">
              <mxPoint x="738" y="330" />
              <mxPoint x="639" y="330" />
            </Array>
          </mxGeometry>
        </mxCell>
        <mxCell id="yjP6mhXBnPZrxiyDEznI-25" style="edgeStyle=orthogonalEdgeStyle;rounded=0;orthogonalLoop=1;jettySize=auto;html=1;exitX=0.5;exitY=1;exitDx=0;exitDy=0;entryX=0.26;entryY=0.964;entryDx=0;entryDy=0;entryPerimeter=0;dashed=1;fontSize=28;fontColor=#007FFF;strokeColor=#FF3333;endArrow=classic;endFill=1;endSize=6;targetPerimeterSpacing=0;" edge="1" parent="1" source="peq8d5gX8DXLt__JmTx_-32">
          <mxGeometry relative="1" as="geometry">
            <mxPoint x="789.4" y="329.28" as="targetPoint" />
            <Array as="points">
              <mxPoint x="750" y="310" />
              <mxPoint x="750" y="330" />
              <mxPoint x="789" y="330" />
            </Array>
          </mxGeometry>
        </mxCell>
        <UserObject label="&lt;h3 id=&quot;static-getderivedstatefromprops&quot;&gt;&lt;code&gt;&lt;font style=&quot;font-size: 14px&quot;&gt;&lt;a href=&quot;https://reactjs.org/docs/hooks-reference.html#usecallback&quot;&gt;useCallback()&lt;/a&gt;&lt;/font&gt;&lt;/code&gt;&lt;/h3&gt;" tooltip="https://reactjs.org/docs/hooks-reference.html#usecallback" id="peq8d5gX8DXLt__JmTx_-32">
          <mxCell style="rounded=1;whiteSpace=wrap;html=1;fillColor=#dae8fc;strokeColor=#6c8ebf;dashed=1;gradientColor=#E8F1FF;" parent="1" vertex="1">
            <mxGeometry x="675.5" y="280" width="124" height="30" as="geometry" />
          </mxCell>
        </UserObject>
        <mxCell id="peq8d5gX8DXLt__JmTx_-33" value="" style="edgeStyle=orthogonalEdgeStyle;rounded=0;orthogonalLoop=1;jettySize=auto;html=1;dashed=1;" parent="1" edge="1">
          <mxGeometry relative="1" as="geometry">
            <mxPoint x="307" y="209" as="sourcePoint" />
            <mxPoint x="307" y="236" as="targetPoint" />
          </mxGeometry>
        </mxCell>
        <mxCell id="peq8d5gX8DXLt__JmTx_-34" value="" style="edgeStyle=orthogonalEdgeStyle;rounded=0;orthogonalLoop=1;jettySize=auto;html=1;dashed=1;" parent="1" edge="1">
          <mxGeometry relative="1" as="geometry">
            <mxPoint x="309" y="265" as="sourcePoint" />
            <mxPoint x="309" y="321" as="targetPoint" />
          </mxGeometry>
        </mxCell>
        <mxCell id="peq8d5gX8DXLt__JmTx_-35" value="" style="endArrow=classic;html=1;strokeColor=#000000;entryX=0.377;entryY=-0.02;entryDx=0;entryDy=0;entryPerimeter=0;" parent="1" edge="1">
          <mxGeometry width="50" height="50" relative="1" as="geometry">
            <mxPoint x="638.29" y="509" as="sourcePoint" />
            <mxPoint x="638.29" y="550" as="targetPoint" />
          </mxGeometry>
        </mxCell>
        <UserObject label="&lt;h3 id=&quot;static-getderivedstatefromprops&quot;&gt;&lt;code&gt;&lt;font color=&quot;#3399ff&quot; style=&quot;font-size: 14px&quot;&gt;&lt;a href=&quot;https://reactjs.org/docs/hooks-reference.html#usestate&quot;&gt;useState()&lt;/a&gt;&lt;/font&gt;&lt;/code&gt;&lt;/h3&gt;" tooltip="https://reactjs.org/docs/hooks-reference.html#usestate" id="peq8d5gX8DXLt__JmTx_-39">
          <mxCell style="text;html=1;strokeColor=none;fillColor=none;align=center;verticalAlign=middle;whiteSpace=wrap;rounded=0;" parent="1" vertex="1">
            <mxGeometry x="553" y="183" width="40" height="20" as="geometry" />
          </mxCell>
        </UserObject>
        <UserObject label="&lt;h3 id=&quot;static-getderivedstatefromprops&quot;&gt;&lt;code&gt;&lt;font color=&quot;#3399ff&quot; style=&quot;font-size: 14px&quot;&gt;&lt;a href=&quot;https://reactjs.org/docs/hooks-reference.html#usereducer&quot;&gt;useReducer()&lt;/a&gt;&lt;/font&gt;&lt;/code&gt;&lt;/h3&gt;" tooltip="https://reactjs.org/docs/hooks-reference.html#usereducer" id="peq8d5gX8DXLt__JmTx_-40">
          <mxCell style="text;html=1;strokeColor=none;fillColor=none;align=center;verticalAlign=middle;whiteSpace=wrap;rounded=0;" parent="1" vertex="1">
            <mxGeometry x="652" y="183" width="40" height="20" as="geometry" />
          </mxCell>
        </UserObject>
        <UserObject label="&lt;h3 id=&quot;static-getderivedstatefromprops&quot;&gt;&lt;code&gt;&lt;font color=&quot;#3399ff&quot; style=&quot;font-size: 14px&quot;&gt;&lt;a href=&quot;https://reactjs.org/docs/hooks-reference.html#usecontext&quot;&gt;useContext()&lt;/a&gt;&lt;/font&gt;&lt;/code&gt;&lt;/h3&gt;" tooltip="https://reactjs.org/docs/hooks-reference.html#usecontext" id="peq8d5gX8DXLt__JmTx_-41">
          <mxCell style="text;html=1;strokeColor=none;fillColor=none;align=center;verticalAlign=middle;whiteSpace=wrap;rounded=0;" parent="1" vertex="1">
            <mxGeometry x="759.5" y="183" width="40" height="20" as="geometry" />
          </mxCell>
        </UserObject>
        <UserObject label="&lt;h3 id=&quot;static-getderivedstatefromprops&quot;&gt;&lt;code style=&quot;font-size: 14px&quot;&gt;&lt;font style=&quot;font-size: 14px&quot;&gt;&lt;a href=&quot;https://reactjs.org/docs/hooks-reference.html#useeffect&quot;&gt;useEffect()&lt;/a&gt;&amp;nbsp;&lt;/font&gt;&lt;/code&gt;&lt;/h3&gt;" tooltip="https://reactjs.org/docs/hooks-reference.html#useeffect" id="peq8d5gX8DXLt__JmTx_-42">
          <mxCell style="text;html=1;strokeColor=none;fillColor=none;align=center;verticalAlign=middle;whiteSpace=wrap;rounded=0;" parent="1" vertex="1">
            <mxGeometry x="554" y="567" width="40" height="20" as="geometry" />
          </mxCell>
        </UserObject>
        <UserObject label="&lt;h3 id=&quot;static-getderivedstatefromprops&quot;&gt;&lt;code&gt;&lt;font size=&quot;1&quot;&gt;&lt;a href=&quot;https://reactjs.org/docs/hooks-reference.html#uselayouteffect&quot; style=&quot;font-size: 14px&quot;&gt;useLayoutEffect()&lt;/a&gt;&lt;/font&gt;&lt;/code&gt;&lt;/h3&gt;" tooltip="https://reactjs.org/docs/hooks-reference.html#uselayouteffect" id="peq8d5gX8DXLt__JmTx_-43">
          <mxCell style="text;html=1;strokeColor=none;fillColor=none;align=center;verticalAlign=middle;whiteSpace=wrap;rounded=0;" parent="1" vertex="1">
            <mxGeometry x="711" y="567" width="40" height="20" as="geometry" />
          </mxCell>
        </UserObject>
        <mxCell id="uvFVxUhtjcqsa5vKmOB1-4" value="" style="shape=image;verticalLabelPosition=bottom;labelBackgroundColor=#ffffff;verticalAlign=top;aspect=fixed;imageAspect=0;image=data:image/svg+xml,PHN2ZyB4bWxucz0iaHR0cDovL3d3dy53My5vcmcvMjAwMC9zdmciIHhtbG5zOnhsaW5rPSJodHRwOi8vd3d3LnczLm9yZy8xOTk5L3hsaW5rIiB2ZXJzaW9uPSIxLjEiIGlkPSJMYXllcl8xIiB4PSIwcHgiIHk9IjBweCIgdmlld0JveD0iMCAwIDE0MC43IDMzNC42IiBzdHlsZT0iZW5hYmxlLWJhY2tncm91bmQ6bmV3IDAgMCAxNDAuNyAzMzQuNjsiIHhtbDpzcGFjZT0icHJlc2VydmUiPiYjeGE7PHN0eWxlIHR5cGU9InRleHQvY3NzIj4mI3hhOwkuc3Qwe2ZpbGw6IzZFQ0ZGMDt9JiN4YTs8L3N0eWxlPiYjeGE7PGc+JiN4YTsJPGc+JiN4YTsJCTxwYXRoIGNsYXNzPSJzdDAiIGQ9Ik0zLjUsNTAuM2wzMS42LDYuMWMxLjMsMC4zLDIuNy0wLjYsMi45LTJsMC4zLTEuN2MwLjMtMS4zLTAuNi0yLjctMi0yLjlMNC44LDQzLjdjLTEuMy0wLjMtMi43LDAuNi0yLjksMiAgICBsLTAuMywxLjdDMS4zLDQ4LjcsMi4xLDUwLDMuNSw1MC4zeiIvPiYjeGE7CTwvZz4mI3hhOwk8Zz4mI3hhOwkJPHBhdGggY2xhc3M9InN0MCIgZD0iTTMuNSw2Mi44bDMxLjYsNi4xYzEuMywwLjMsMi43LTAuNiwyLjktMmwwLjMtMS43YzAuMy0xLjMtMC42LTIuNy0yLTIuOUw0LjgsNTYuMmMtMS4zLTAuMy0yLjcsMC42LTIuOSwyICAgIGwtMC4zLDEuN0MxLjMsNjEuMiwyLjEsNjIuNSwzLjUsNjIuOHoiLz4mI3hhOwk8L2c+JiN4YTsJPGc+JiN4YTsJCTxwYXRoIGNsYXNzPSJzdDAiIGQ9Ik0zLjUsNzUuM2wzMS42LDYuMWMxLjMsMC4zLDIuNy0wLjYsMi45LTJsMC4zLTEuN2MwLjMtMS4zLTAuNi0yLjctMi0yLjlMNC44LDY4LjdjLTEuMy0wLjMtMi43LDAuNi0yLjksMiAgICBsLTAuMywxLjdDMS4zLDczLjcsMi4xLDc1LDMuNSw3NS4zeiIvPiYjeGE7CTwvZz4mI3hhOwk8Zz4mI3hhOwkJPHBhdGggY2xhc3M9InN0MCIgZD0iTTMuNSw4Ny44bDMxLjYsNi4xYzEuMywwLjMsMi43LTAuNiwyLjktMmwwLjMtMS43YzAuMy0xLjMtMC42LTIuNy0yLTIuOUw0LjgsODEuMmMtMS4zLTAuMy0yLjcsMC42LTIuOSwyICAgIGwtMC4zLDEuN0MxLjMsODYuMiwyLjEsODcuNSwzLjUsODcuOHoiLz4mI3hhOwk8L2c+JiN4YTsJPGc+JiN4YTsJCTxwYXRoIGNsYXNzPSJzdDAiIGQ9Ik0zLjUsMTAwLjNsMzEuNiw2LjFjMS4zLDAuMywyLjctMC42LDIuOS0ybDAuMy0xLjdjMC4zLTEuMy0wLjYtMi43LTItMi45TDQuOCw5My43Yy0xLjMtMC4zLTIuNywwLjYtMi45LDIgICAgbC0wLjMsMS43QzEuMyw5OC43LDIuMSwxMDAsMy41LDEwMC4zeiIvPiYjeGE7CTwvZz4mI3hhOwk8Zz4mI3hhOwkJPHBhdGggY2xhc3M9InN0MCIgZD0iTTMuNSwxMTIuOGwzMS42LDYuMWMxLjMsMC4zLDIuNy0wLjYsMi45LTJsMC4zLTEuN2MwLjMtMS4zLTAuNi0yLjctMi0yLjlsLTMxLjYtNi4xYy0xLjMtMC4zLTIuNywwLjYtMi45LDIgICAgbC0wLjMsMS43QzEuMywxMTEuMiwyLjEsMTEyLjUsMy41LDExMi44eiIvPiYjeGE7CTwvZz4mI3hhOwk8Zz4mI3hhOwkJPHBhdGggY2xhc3M9InN0MCIgZD0iTTMuNSwxMjUuM2wzMS42LDYuMWMxLjMsMC4zLDIuNy0wLjYsMi45LTJsMC4zLTEuN2MwLjMtMS4zLTAuNi0yLjctMi0yLjlsLTMxLjYtNi4xYy0xLjMtMC4zLTIuNywwLjYtMi45LDIgICAgbC0wLjMsMS43QzEuMywxMjMuNywyLjEsMTI1LDMuNSwxMjUuM3oiLz4mI3hhOwk8L2c+JiN4YTsJPGc+JiN4YTsJCTxwYXRoIGNsYXNzPSJzdDAiIGQ9Ik0xNS40LDM5LjN2MTAuMmg5LjFWMzkuM2M4LjgtMi4xLDE1LjQtMTAsMTUuNC0xOS40QzM5LjgsOC45LDMwLjksMCwxOS45LDBDOC45LDAsMCw4LjksMCwxOS45ICAgIEMwLDI5LjQsNi42LDM3LjMsMTUuNCwzOS4zeiBNNCwxOS45QzQsMTEuMSwxMS4xLDQsMTkuOSw0YzguOCwwLDE1LjksNy4xLDE1LjksMTUuOWMwLDguOC03LjEsMTUuOS0xNS45LDE1LjkgICAgQzExLjEsMzUuOSw0LDI4LjcsNCwxOS45eiIvPiYjeGE7CTwvZz4mI3hhOwk8Zz4mI3hhOwkJPHBhdGggY2xhc3M9InN0MCIgZD0iTTE1LjIsMTM1LjRWMTI1aDkuMXYxMC40YzAuMywwLjEsMC4zLTAuNCwwLjEtMC41bDAsMTExLjFjLTAuNSwxNS40LDQuNCwzMC4yLDEyLjQsNDMuM3MyMCwyMy44LDMzLjksMzAuMyAgICBjMTIuMSw1LjcsMjYuOCw4LDM4LjcsMmM5LjgtNSwxNi4zLTE1LDE5LjUtMjUuNWMzLjItMTAuNSwzLjUtMjEuNywzLjgtMzIuN2MtNS40LDUuNy0xMC4zLDExLTE1LjcsMTYuN2MwLjEtMC4zLDAuNC0wLjUsMC43LTAuNSAgICBjOC45LTE0LjksMTAuNy0zMy4xLDUuMS00OS41YzE2LjcsMTkuMiwyMi42LDQ2LjgsMTQsNzAuN2MtNS4yLDE0LjYtMTYuMSwyNy45LTMxLDMyLjNjLTEzLjgsNC4xLTI4LjktMC4xLTQxLjUtNy4xICAgIGMtMTguMi0xMC4xLTMzLTI2LjEtNDEuNi00NWMtOC43LTE4LjktNy02MC45LTctNjAuOUwxNS4yLDEzNS40eiIvPiYjeGE7CTwvZz4mI3hhOzwvZz4mI3hhOzwvc3ZnPg==;" parent="1" vertex="1">
          <mxGeometry x="188" y="33" width="21" height="49" as="geometry" />
        </mxCell>
        <mxCell id="yjP6mhXBnPZrxiyDEznI-5" value="&lt;h3 id=&quot;static-getderivedstatefromprops&quot; style=&quot;color: rgb(0, 0, 0); font-style: normal; letter-spacing: normal; text-align: center; text-indent: 0px; text-transform: none; word-spacing: 0px;&quot;&gt;&lt;font face=&quot;monospace&quot;&gt;&lt;span style=&quot;font-size: 14px ; font-weight: normal&quot;&gt;new props&lt;/span&gt;&lt;/font&gt;&lt;/h3&gt;" style="text;whiteSpace=wrap;html=1;labelBackgroundColor=none;spacing=2;verticalAlign=middle;" vertex="1" parent="1">
          <mxGeometry x="443" y="163" width="89" height="60" as="geometry" />
        </mxCell>
        <mxCell id="yjP6mhXBnPZrxiyDEznI-13" style="edgeStyle=orthogonalEdgeStyle;rounded=0;orthogonalLoop=1;jettySize=auto;html=1;exitX=0.5;exitY=1;exitDx=0;exitDy=0;entryX=0.53;entryY=-0.02;entryDx=0;entryDy=0;entryPerimeter=0;fontColor=#007FFF;" edge="1" parent="1" source="yjP6mhXBnPZrxiyDEznI-10" target="peq8d5gX8DXLt__JmTx_-31">
          <mxGeometry relative="1" as="geometry" />
        </mxCell>
        <mxCell id="yjP6mhXBnPZrxiyDEznI-17" style="edgeStyle=orthogonalEdgeStyle;rounded=0;orthogonalLoop=1;jettySize=auto;html=1;exitX=0.5;exitY=1;exitDx=0;exitDy=0;entryX=0.5;entryY=0;entryDx=0;entryDy=0;dashed=1;fontColor=#007FFF;" edge="1" parent="1" source="yjP6mhXBnPZrxiyDEznI-10" target="peq8d5gX8DXLt__JmTx_-32">
          <mxGeometry relative="1" as="geometry" />
        </mxCell>
        <mxCell id="yjP6mhXBnPZrxiyDEznI-10" value="" style="rhombus;whiteSpace=wrap;html=1;labelBackgroundColor=none;fontColor=#007FFF;fillColor=none;aspect=fixed;" vertex="1" parent="1">
          <mxGeometry x="628" y="208" width="20" height="20" as="geometry" />
        </mxCell>
        <mxCell id="yjP6mhXBnPZrxiyDEznI-27" value="&lt;font color=&quot;#ff2d0d&quot; style=&quot;font-size: 22px&quot; face=&quot;Comic Sans MS&quot;&gt;X&lt;/font&gt;" style="text;html=1;resizable=0;points=[];autosize=1;align=left;verticalAlign=top;spacingTop=-4;" vertex="1" parent="1">
          <mxGeometry x="791" y="314" width="30" height="20" as="geometry" />
        </mxCell>
        <mxCell id="peq8d5gX8DXLt__JmTx_-21" value="" style="group" parent="1" vertex="1" connectable="0">
          <mxGeometry x="182" y="709" width="550" height="60" as="geometry" />
        </mxCell>
        <mxCell id="peq8d5gX8DXLt__JmTx_-22" value="&lt;font style=&quot;line-height: 170%&quot;&gt;Made with&lt;span style=&quot;white-space: pre&quot;&gt;	&lt;/span&gt;by&amp;nbsp;&lt;span style=&quot;white-space: pre&quot;&gt;	&lt;/span&gt;&lt;span style=&quot;white-space: pre&quot;&gt;	&lt;/span&gt;&lt;span style=&quot;white-space: pre&quot;&gt;	&lt;/span&gt;&lt;br&gt;&lt;/font&gt;" style="text;html=1;resizable=0;points=[];autosize=1;align=left;verticalAlign=top;spacingTop=-4;fontSize=13;fontColor=#000000;fontFamily=Lucida Console;" parent="peq8d5gX8DXLt__JmTx_-21" vertex="1">
          <mxGeometry y="10" width="170" height="20" as="geometry" />
        </mxCell>
        <mxCell id="peq8d5gX8DXLt__JmTx_-23" value="" style="shape=image;imageAspect=0;aspect=fixed;verticalLabelPosition=bottom;verticalAlign=top;gradientColor=#ffffff;fontSize=18;fontColor=#000000;image=data:image/svg+xml,PHN2ZyB4bWxucz0iaHR0cDovL3d3dy53My5vcmcvMjAwMC9zdmciIHhtbG5zOnhsaW5rPSJodHRwOi8vd3d3LnczLm9yZy8xOTk5L3hsaW5rIiB2ZXJzaW9uPSIxLjEiIGlkPSJMYXllcl8xIiB4PSIwcHgiIHk9IjBweCIgdmlld0JveD0iMCAwIDMyLjYgMzEuOCIgc3R5bGU9ImVuYWJsZS1iYWNrZ3JvdW5kOm5ldyAwIDAgMzIuNiAzMS44OyIgeG1sOnNwYWNlPSJwcmVzZXJ2ZSI+JiN4YTs8c3R5bGUgdHlwZT0idGV4dC9jc3MiPiYjeGE7CS5zdDB7ZmlsbC1ydWxlOmV2ZW5vZGQ7Y2xpcC1ydWxlOmV2ZW5vZGQ7ZmlsbDojMTgxNjE2O30mI3hhOzwvc3R5bGU+JiN4YTs8cGF0aCBjbGFzcz0ic3QwIiBkPSJNMTYuMywwQzcuMywwLDAsNy4zLDAsMTYuM2MwLDcuMiw0LjcsMTMuMywxMS4xLDE1LjVjMC44LDAuMSwxLjEtMC40LDEuMS0wLjhjMC0wLjQsMC0xLjQsMC0yLjggIGMtNC41LDEtNS41LTIuMi01LjUtMi4yYy0wLjctMS45LTEuOC0yLjQtMS44LTIuNGMtMS41LTEsMC4xLTEsMC4xLTFjMS42LDAuMSwyLjUsMS43LDIuNSwxLjdjMS41LDIuNSwzLjgsMS44LDQuNywxLjQgIGMwLjEtMS4xLDAuNi0xLjgsMS0yLjJjLTMuNi0wLjQtNy40LTEuOC03LjQtOC4xYzAtMS44LDAuNi0zLjIsMS43LTQuNEM3LjQsMTAuNyw2LjgsOSw3LjcsNi44YzAsMCwxLjQtMC40LDQuNSwxLjcgIGMxLjMtMC40LDIuNy0wLjUsNC4xLTAuNWMxLjQsMCwyLjgsMC4yLDQuMSwwLjVjMy4xLTIuMSw0LjUtMS43LDQuNS0xLjdjMC45LDIuMiwwLjMsMy45LDAuMiw0LjNjMSwxLjEsMS43LDIuNiwxLjcsNC40ICBjMCw2LjMtMy44LDcuNi03LjQsOGMwLjYsMC41LDEuMSwxLjUsMS4xLDNjMCwyLjIsMCwzLjksMCw0LjVjMCwwLjQsMC4zLDAuOSwxLjEsMC44YzYuNS0yLjIsMTEuMS04LjMsMTEuMS0xNS41ICBDMzIuNiw3LjMsMjUuMywwLDE2LjMsMHoiLz4mI3hhOzwvc3ZnPg==;" parent="peq8d5gX8DXLt__JmTx_-21" vertex="1">
          <mxGeometry x="686" y="8" width="27.675" height="27" as="geometry" />
        </mxCell>
        <mxCell id="yjP6mhXBnPZrxiyDEznI-8" value="" style="aspect=fixed;html=1;points=[];align=center;image;fontSize=12;image=img/lib/azure2/general/Heart.svg;labelBackgroundColor=none;fillColor=none;" vertex="1" parent="peq8d5gX8DXLt__JmTx_-21">
          <mxGeometry x="62" y="17.559999999999945" width="14" height="13.13" as="geometry" />
        </mxCell>
        <UserObject label="&lt;span style=&quot;font-family: &amp;#34;lucida console&amp;#34; ; font-size: 13px ; font-style: normal ; font-weight: 400 ; letter-spacing: normal ; text-align: left ; text-indent: 0px ; text-transform: none ; word-spacing: 0px ; background-color: rgb(248 , 249 , 250) ; display: inline ; float: none&quot;&gt;&lt;font color=&quot;#007fff&quot;&gt;&lt;u&gt;Gal Margalit&lt;/u&gt;&lt;/font&gt;&lt;/span&gt;" link="https://twitter.com/MargalitGal" linkTarget="_blank" id="yjP6mhXBnPZrxiyDEznI-9">
          <mxCell style="text;whiteSpace=wrap;html=1;" vertex="1" parent="peq8d5gX8DXLt__JmTx_-21">
            <mxGeometry x="97" y="9" width="90" height="30" as="geometry" />
          </mxCell>
        </UserObject>
        <mxCell id="peq8d5gX8DXLt__JmTx_-24" value="&lt;a href=&quot;https://github.com/Wavez/react-hooks-lifecycle&quot; style=&quot;font-size: 12px&quot;&gt;&lt;font color=&quot;#007fff&quot; style=&quot;font-size: 12px&quot; face=&quot;Lucida Console&quot;&gt;Wavez/react-hooks-lifecycle&lt;/font&gt;&lt;/a&gt;" style="text;html=1;resizable=0;points=[];autosize=1;align=left;verticalAlign=top;spacingTop=-4;fontSize=12;fontColor=#000000;" parent="1" vertex="1">
          <mxGeometry x="902.5" y="722" width="205" height="15" as="geometry" />
        </mxCell>
        <mxCell id="peq8d5gX8DXLt__JmTx_-25" value="" style="endArrow=none;dashed=1;html=1;fontFamily=Lucida Console;fontSize=12;fontColor=#000000;strokeColor=#B3B3B3;" parent="1" edge="1">
          <mxGeometry width="50" height="50" relative="1" as="geometry">
            <mxPoint x="184" y="701.8" as="sourcePoint" />
            <mxPoint x="1040" y="702" as="targetPoint" />
          </mxGeometry>
        </mxCell>
      </root>
    </mxGraphModel>
  </diagram>
</mxfile>
